# xmcd
#
# Track frame offsets:
#	150
#	20523
#	42085
#	64420
#	82418
#	100995
#	118888
#	137958
#	156720
#	177048
#
# Disc length: 2592 seconds
#
# Revision: 1
# Processed by: cddbd v1.4PL0 Copyright (c) Steve Scherf et al.
# Submitted via: audiograbber 1.80
#
DISCID=950a1e0a
DTITLE=Various Artist - Hot Country Dancin
DYEAR=1900
DGENRE=
TTITLE0=Achy Breaky Heart
TTITLE1=Boot Scottin Boogie
TTITLE2=Quenn Of Memphis
TTITLE3=Baby I'm Burnin
TTITLE4=Down At The Twist And Shout
TTITLE5=Jose' Cuervo
TTITLE6=Bubba Shot The Juke Box
TTITLE7=There Ain't Nothin Wrong With The Radio
TTITLE8=All My Ex's Live In Texas
TTITLE9=Cotton Eyed Joe
EXTD=
EXTT0=
EXTT1=
EXTT2=
EXTT3=
EXTT4=
EXTT5=
EXTT6=
EXTT7=
EXTT8=
EXTT9=
PLAYORDER=
